<svg width="1728" height="1117" viewBox="0 0 1728 1117" fill="none" xmlns="http://www.w3.org/2000/svg">
<g clip-path="url(#clip0_9_2)">
<rect width="1728" height="1117" fill="white"/>
<mask id="mask0_9_2" style="mask-type:alpha" maskUnits="userSpaceOnUse" x="95" y="-2" width="208" height="1193">
<path d="M205.327 0C205.327 0 339.327 23.6047 205.327 83.1296C71.3274 142.655 53.4014 235.475 205.327 353.044C373.886 483.485 283.637 636.329 205.327 682.484C145.172 713.711 49.2567 836.747 205.327 951.372C341.108 1051.1 307.327 818.981 205.327 1063.24C103.327 1307.5 205.327 1120.71 205.327 1120.71" stroke="url(#paint0_linear_9_2)" stroke-width="4"/>
</mask>
<g mask="url(#mask0_9_2)">
<rect x="51.3274" y="-15.3943" width="298" height="1375.23" fill="url(#paint1_linear_9_2)"/>
</g>
<mask id="mask1_9_2" style="mask-type:alpha" maskUnits="userSpaceOnUse" x="53" y="2" width="395" height="1183">
<path d="M395.538 3.85213C395.538 3.85213 519.69 59.8381 374.833 87.0261C229.976 114.214 189.463 202.754 307.608 357.085C438.687 528.312 313.042 659.436 225.557 686.7C159.405 703.414 35.6868 803.346 158.587 955.732C265.509 1088.31 290.54 847.909 130.725 1067.66C-29.0894 1287.41 116.411 1125.16 116.411 1125.16" stroke="url(#paint2_linear_9_2)" stroke-width="4"/>
</mask>
<g mask="url(#mask1_9_2)">
<rect x="249.932" y="-48.7502" width="298" height="1417.96" transform="rotate(13.9785 249.932 -48.7502)" fill="url(#paint3_linear_9_2)"/>
</g>
<mask id="mask2_9_2" style="mask-type:alpha" maskUnits="userSpaceOnUse" x="250" y="2" width="394" height="1183">
<path d="M592.284 3.92573C592.284 3.92573 716.437 59.9117 571.579 87.0997C426.722 114.288 386.209 202.828 504.354 357.158C635.434 528.385 509.789 659.51 422.303 686.774C356.152 703.487 232.433 803.419 355.333 955.806C462.255 1088.38 487.286 847.983 327.472 1067.73C167.657 1287.48 313.157 1125.23 313.157 1125.23" stroke="url(#paint4_linear_9_2)" stroke-width="4"/>
</mask>
<g mask="url(#mask2_9_2)">
<rect x="437.518" y="-40" width="298" height="1417.96" transform="rotate(13.9785 437.518 -40)" fill="url(#paint5_linear_9_2)"/>
</g>
<mask id="mask3_9_2" style="mask-type:alpha" maskUnits="userSpaceOnUse" x="613" y="-11" width="206" height="1231">
<path d="M724.565 -8.27864C724.565 -8.27864 858.398 16.9595 723.989 77.4317C589.579 137.904 571.01 233.486 722.118 355.726C889.769 491.348 798.462 648.33 719.835 695.392C659.465 727.185 562.699 853.395 717.972 972.628C853.058 1076.36 820.887 836.812 717.197 1087.97C613.506 1339.12 716.798 1147.22 716.798 1147.22" stroke="url(#paint6_linear_9_2)" stroke-width="4"/>
</mask>
<g mask="url(#mask3_9_2)">
<rect x="563.81" y="-14.5992" width="298" height="1417.96" transform="rotate(0.385093 563.81 -14.5992)" fill="url(#paint7_linear_9_2)"/>
</g>
<mask id="mask4_9_2" style="mask-type:alpha" maskUnits="userSpaceOnUse" x="800" y="-10" width="206" height="1231">
<path d="M911.565 -7.27864C911.565 -7.27864 1045.4 17.9595 910.989 78.4317C776.579 138.904 758.01 234.486 909.118 356.726C1076.77 492.348 985.462 649.33 906.835 696.392C846.465 728.185 749.699 854.395 904.972 973.628C1040.06 1077.36 1007.89 837.812 904.197 1088.97C800.506 1340.12 903.798 1148.22 903.798 1148.22" stroke="url(#paint8_linear_9_2)" stroke-width="4"/>
</mask>
<g mask="url(#mask4_9_2)">
<rect x="750.81" y="-13.5992" width="298" height="1417.96" transform="rotate(0.385093 750.81 -13.5992)" fill="url(#paint9_linear_9_2)"/>
</g>
<mask id="mask5_9_2" style="mask-type:alpha" maskUnits="userSpaceOnUse" x="911" y="-7" width="241" height="1218">
<path d="M1094.1 -4.92985C1094.1 -4.92985 1224.59 34.0565 1084.63 80.2582C944.674 126.46 916.289 219.6 1053.9 356.856C1206.58 509.14 1099.48 655.803 1016.39 694.454C953.048 719.812 843.711 835.302 985.776 970C1109.37 1087.19 1102.23 845.594 973.04 1084.64C843.853 1323.68 966.496 1143.53 966.496 1143.53" stroke="url(#paint10_linear_9_2)" stroke-width="4"/>
</mask>
<g mask="url(#mask5_9_2)">
<rect x="934.865" y="-27.8937" width="298" height="1417.96" transform="rotate(6.33989 934.865 -27.8937)" fill="url(#paint11_linear_9_2)"/>
</g>
<mask id="mask6_9_2" style="mask-type:alpha" maskUnits="userSpaceOnUse" x="1108" y="-20" width="201" height="1229">
<path d="M1222.35 -17.8589C1222.35 -17.8589 1355.82 9.2555 1220.57 67.8349C1085.33 126.414 1065.42 221.726 1214.8 346.075C1380.53 484.038 1287.03 639.723 1207.75 685.676C1146.94 716.618 1048.41 841.458 1201.99 962.859C1335.61 1068.48 1306.8 828.501 1199.6 1078.18C1092.39 1327.85 1198.37 1137.42 1198.37 1137.42" stroke="url(#paint12_linear_9_2)" stroke-width="4"/>
</mask>
<g mask="url(#mask6_9_2)">
<rect x="1061.7" y="-26.4356" width="298" height="1417.96" transform="rotate(1.18945 1061.7 -26.4356)" fill="url(#paint13_linear_9_2)"/>
</g>
<mask id="mask7_9_2" style="mask-type:alpha" maskUnits="userSpaceOnUse" x="1222" y="-19" width="241" height="1218">
<path d="M1405.15 -16.9877C1405.15 -16.9877 1535.62 22.0499 1395.65 68.1966C1255.67 114.343 1227.25 207.472 1364.81 344.783C1517.42 497.126 1410.27 643.747 1327.17 682.365C1263.81 707.698 1154.43 823.146 1296.44 957.9C1419.99 1075.13 1412.94 833.539 1283.66 1072.53C1154.38 1311.52 1277.09 1131.42 1277.09 1131.42" stroke="url(#paint14_linear_9_2)" stroke-width="4"/>
</mask>
<g mask="url(#mask7_9_2)">
<rect x="1245.92" y="-40.0141" width="298" height="1417.96" transform="rotate(6.3624 1245.92 -40.0141)" fill="url(#paint15_linear_9_2)"/>
</g>
<mask id="mask8_9_2" style="mask-type:alpha" maskUnits="userSpaceOnUse" x="1405" y="-28" width="241" height="1218">
<path d="M1588.58 -25.7823C1588.58 -25.7823 1719.05 13.2553 1579.08 59.402C1439.1 105.549 1410.68 198.677 1548.24 335.988C1700.85 488.332 1593.7 634.952 1510.6 673.571C1447.24 698.904 1337.86 814.351 1479.87 949.105C1603.42 1066.34 1596.37 824.745 1467.09 1063.74C1337.81 1302.73 1460.52 1122.63 1460.52 1122.63" stroke="url(#paint16_linear_9_2)" stroke-width="4"/>
</mask>
<g mask="url(#mask8_9_2)">
<rect x="1429.35" y="-48.8087" width="298" height="1417.96" transform="rotate(6.3624 1429.35 -48.8087)" fill="url(#paint17_linear_9_2)"/>
</g>
<mask id="mask9_9_2" style="mask-type:alpha" maskUnits="userSpaceOnUse" x="1589" y="-37" width="241" height="1218">
<path d="M1772.01 -34.5768C1772.01 -34.5768 1902.48 4.46076 1762.51 50.6075C1622.53 96.7542 1594.11 189.883 1731.67 327.194C1884.28 479.537 1777.13 626.158 1694.03 664.776C1630.67 690.109 1521.29 805.556 1663.3 940.311C1786.85 1057.55 1779.8 815.95 1650.52 1054.94C1521.24 1293.93 1643.95 1113.83 1643.95 1113.83" stroke="url(#paint18_linear_9_2)" stroke-width="4"/>
</mask>
<g mask="url(#mask9_9_2)">
<rect x="1612.78" y="-57.6032" width="298" height="1417.96" transform="rotate(6.3624 1612.78 -57.6032)" fill="url(#paint19_linear_9_2)"/>
</g>
<mask id="mask10_9_2" style="mask-type:alpha" maskUnits="userSpaceOnUse" x="-36" y="0" width="241" height="1219">
<path d="M147.521 2.89368C147.521 2.89368 277.999 41.9313 138.023 88.078C-1.95331 134.225 -30.3746 227.353 107.182 364.664C259.799 517.008 152.641 663.628 69.5407 702.247C6.18792 727.58 -103.195 843.027 38.8176 977.781C162.367 1095.02 155.316 853.421 26.0358 1092.41C-103.245 1331.4 19.4691 1151.3 19.4691 1151.3" stroke="url(#paint20_linear_9_2)" stroke-width="4"/>
</mask>
<g mask="url(#mask10_9_2)">
<rect x="-11.7015" y="-20.1327" width="298" height="1417.96" transform="rotate(6.3624 -11.7015 -20.1327)" fill="url(#paint21_linear_9_2)"/>
</g>
<mask id="mask11_9_2" style="mask-type:alpha" maskUnits="userSpaceOnUse" x="-1738" y="79" width="3593" height="404">
<path d="M1849.15 272.967C1850.88 326.964 1761.28 433.711 1389.01 428.722C1016.74 423.732 794.103 286.697 729.317 218.803C674.409 158.059 495.882 48.4851 221.04 96.1357C-53.8027 143.786 -79.4902 321.795 -102.376 403.166C-137.369 455.057 -352.427 529.076 -577.535 423.445C-802.643 317.814 -959.916 200.905 -1010.41 155.654C-1059.28 104.901 -1338.48 34.1921 -1492.18 156.444C-1684.31 309.259 -1693.82 526.275 -1733.4 454.84" stroke="url(#paint22_linear_9_2)" stroke-width="10"/>
</mask>
<g mask="url(#mask11_9_2)">
<rect x="1848.71" y="-4.99988" width="510" height="3617.37" transform="rotate(89.9061 1848.71 -4.99988)" fill="url(#paint23_linear_9_2)"/>
</g>
<mask id="mask12_9_2" style="mask-type:alpha" maskUnits="userSpaceOnUse" x="-2520" y="736" width="4886" height="404">
<path d="M2360.34 928.967C2362.67 982.963 2240.66 1089.76 1734.03 1084.99C1227.4 1080.22 924.48 943.321 836.351 875.465C761.66 814.754 518.76 705.286 144.688 753.099C-229.384 800.912 -264.449 978.937 -295.644 1060.32C-343.297 1112.23 -636.022 1186.38 -942.318 1080.88C-1248.61 975.383 -1462.58 858.567 -1531.28 813.346C-1597.75 762.622 -1977.69 692.078 -2186.94 814.421C-2448.5 967.35 -2461.58 1184.37 -2515.4 1112.96" stroke="url(#paint24_linear_9_2)" stroke-width="10"/>
</mask>
<g mask="url(#mask12_9_2)">
<rect x="2359.92" y="651" width="510" height="3863.36" transform="rotate(89.9061 2359.92 651)" fill="url(#paint25_linear_9_2)"/>
</g>
<mask id="mask13_9_2" style="mask-type:alpha" maskUnits="userSpaceOnUse" x="-2247" y="382" width="4886" height="404">
<path d="M2633.34 574.967C2635.67 628.963 2513.66 735.763 2007.03 730.994C1500.4 726.224 1197.48 589.321 1109.35 521.465C1034.66 460.754 791.76 351.286 417.688 399.099C43.6157 446.912 8.55123 624.937 -22.6438 706.321C-70.2972 758.233 -363.022 832.379 -669.318 726.881C-975.614 621.383 -1189.58 504.567 -1258.28 459.346C-1324.75 408.622 -1704.69 338.078 -1913.94 460.421C-2175.5 613.35 -2188.58 830.372 -2242.4 758.96" stroke="url(#paint26_linear_9_2)" stroke-width="10"/>
</mask>
<g mask="url(#mask13_9_2)">
<rect x="2632.92" y="297" width="510" height="3863.36" transform="rotate(89.9061 2632.92 297)" fill="url(#paint27_linear_9_2)"/>
</g>
</g>
<defs>
<linearGradient id="paint0_linear_9_2" x1="199.408" y1="0" x2="199.408" y2="1189" gradientUnits="userSpaceOnUse">
<stop stop-color="#D6A2A2"/>
<stop offset="1" stop-color="#D22C2C"/>
</linearGradient>
<linearGradient id="paint1_linear_9_2" x1="200.327" y1="-15.3943" x2="200.327" y2="1359.84" gradientUnits="userSpaceOnUse">
<stop stop-color="#0DE2FF"/>
<stop offset="0.59" stop-color="#FFE5B2"/>
<stop offset="1" stop-color="#0BFFF0"/>
</linearGradient>
<linearGradient id="paint2_linear_9_2" x1="389.793" y1="2.42218" x2="93.6584" y2="1192.06" gradientUnits="userSpaceOnUse">
<stop stop-color="#D6A2A2"/>
<stop offset="1" stop-color="#D22C2C"/>
</linearGradient>
<linearGradient id="paint3_linear_9_2" x1="398.932" y1="-48.7502" x2="398.932" y2="1369.21" gradientUnits="userSpaceOnUse">
<stop stop-color="#0DE2FF"/>
<stop offset="0.59" stop-color="#FFE5B2"/>
<stop offset="1" stop-color="#0BFFF0"/>
</linearGradient>
<linearGradient id="paint4_linear_9_2" x1="586.539" y1="2.49578" x2="290.405" y2="1192.13" gradientUnits="userSpaceOnUse">
<stop stop-color="#D6A2A2"/>
<stop offset="1" stop-color="#D22C2C"/>
</linearGradient>
<linearGradient id="paint5_linear_9_2" x1="586.518" y1="-40" x2="586.518" y2="1377.96" gradientUnits="userSpaceOnUse">
<stop stop-color="#0DE2FF"/>
<stop offset="0.59" stop-color="#FFE5B2"/>
<stop offset="1" stop-color="#0BFFF0"/>
</linearGradient>
<linearGradient id="paint6_linear_9_2" x1="718.645" y1="-8.31843" x2="710.405" y2="1217.59" gradientUnits="userSpaceOnUse">
<stop stop-color="#D6A2A2"/>
<stop offset="1" stop-color="#D22C2C"/>
</linearGradient>
<linearGradient id="paint7_linear_9_2" x1="712.81" y1="-14.5992" x2="712.81" y2="1403.36" gradientUnits="userSpaceOnUse">
<stop stop-color="#0DE2FF"/>
<stop offset="0.59" stop-color="#FFE5B2"/>
<stop offset="1" stop-color="#0BFFF0"/>
</linearGradient>
<linearGradient id="paint8_linear_9_2" x1="905.645" y1="-7.31843" x2="897.405" y2="1218.59" gradientUnits="userSpaceOnUse">
<stop stop-color="#D6A2A2"/>
<stop offset="1" stop-color="#D22C2C"/>
</linearGradient>
<linearGradient id="paint9_linear_9_2" x1="899.81" y1="-13.5992" x2="899.81" y2="1404.36" gradientUnits="userSpaceOnUse">
<stop stop-color="#0DE2FF"/>
<stop offset="0.59" stop-color="#FFE5B2"/>
<stop offset="1" stop-color="#0BFFF0"/>
</linearGradient>
<linearGradient id="paint10_linear_9_2" x1="1088.21" y1="-5.58354" x2="952.837" y2="1212.86" gradientUnits="userSpaceOnUse">
<stop stop-color="#D6A2A2"/>
<stop offset="1" stop-color="#D22C2C"/>
</linearGradient>
<linearGradient id="paint11_linear_9_2" x1="1083.87" y1="-27.8937" x2="1083.87" y2="1390.06" gradientUnits="userSpaceOnUse">
<stop stop-color="#0DE2FF"/>
<stop offset="0.59" stop-color="#FFE5B2"/>
<stop offset="1" stop-color="#0BFFF0"/>
</linearGradient>
<linearGradient id="paint12_linear_9_2" x1="1216.44" y1="-17.9818" x2="1190.99" y2="1207.69" gradientUnits="userSpaceOnUse">
<stop stop-color="#D6A2A2"/>
<stop offset="1" stop-color="#D22C2C"/>
</linearGradient>
<linearGradient id="paint13_linear_9_2" x1="1210.7" y1="-26.4356" x2="1210.7" y2="1391.52" gradientUnits="userSpaceOnUse">
<stop stop-color="#0DE2FF"/>
<stop offset="0.59" stop-color="#FFE5B2"/>
<stop offset="1" stop-color="#0BFFF0"/>
</linearGradient>
<linearGradient id="paint14_linear_9_2" x1="1399.26" y1="-17.6437" x2="1263.41" y2="1200.74" gradientUnits="userSpaceOnUse">
<stop stop-color="#D6A2A2"/>
<stop offset="1" stop-color="#D22C2C"/>
</linearGradient>
<linearGradient id="paint15_linear_9_2" x1="1394.92" y1="-40.0141" x2="1394.92" y2="1377.94" gradientUnits="userSpaceOnUse">
<stop stop-color="#0DE2FF"/>
<stop offset="0.59" stop-color="#FFE5B2"/>
<stop offset="1" stop-color="#0BFFF0"/>
</linearGradient>
<linearGradient id="paint16_linear_9_2" x1="1582.69" y1="-26.4383" x2="1446.84" y2="1191.95" gradientUnits="userSpaceOnUse">
<stop stop-color="#D6A2A2"/>
<stop offset="1" stop-color="#D22C2C"/>
</linearGradient>
<linearGradient id="paint17_linear_9_2" x1="1578.35" y1="-48.8087" x2="1578.35" y2="1369.15" gradientUnits="userSpaceOnUse">
<stop stop-color="#0DE2FF"/>
<stop offset="0.59" stop-color="#FFE5B2"/>
<stop offset="1" stop-color="#0BFFF0"/>
</linearGradient>
<linearGradient id="paint18_linear_9_2" x1="1766.12" y1="-35.2328" x2="1630.27" y2="1183.16" gradientUnits="userSpaceOnUse">
<stop stop-color="#D6A2A2"/>
<stop offset="1" stop-color="#D22C2C"/>
</linearGradient>
<linearGradient id="paint19_linear_9_2" x1="1761.78" y1="-57.6032" x2="1761.78" y2="1360.35" gradientUnits="userSpaceOnUse">
<stop stop-color="#0DE2FF"/>
<stop offset="0.59" stop-color="#FFE5B2"/>
<stop offset="1" stop-color="#0BFFF0"/>
</linearGradient>
<linearGradient id="paint20_linear_9_2" x1="141.638" y1="2.23768" x2="5.78311" y2="1220.63" gradientUnits="userSpaceOnUse">
<stop stop-color="#D6A2A2"/>
<stop offset="1" stop-color="#D22C2C"/>
</linearGradient>
<linearGradient id="paint21_linear_9_2" x1="137.299" y1="-20.1327" x2="137.299" y2="1397.82" gradientUnits="userSpaceOnUse">
<stop stop-color="#0DE2FF"/>
<stop offset="0.59" stop-color="#FFE5B2"/>
<stop offset="1" stop-color="#0BFFF0"/>
</linearGradient>
<linearGradient id="paint22_linear_9_2" x1="1849.18" y1="277.774" x2="-1733.68" y2="283.647" gradientUnits="userSpaceOnUse">
<stop stop-color="#C64545"/>
<stop offset="1" stop-color="#B95656"/>
</linearGradient>
<linearGradient id="paint23_linear_9_2" x1="2103.71" y1="-4.99988" x2="2103.71" y2="3612.37" gradientUnits="userSpaceOnUse">
<stop stop-color="#FFB1B1"/>
<stop offset="0.175" stop-color="#FFE3AB"/>
<stop offset="0.34" stop-color="#BAFEEA"/>
<stop offset="0.505" stop-color="#FDFEBA"/>
<stop offset="0.62" stop-color="#CDFFC0"/>
<stop offset="0.72" stop-color="#FFCBC0"/>
<stop offset="0.86" stop-color="#EBFFC0"/>
<stop offset="0.98" stop-color="#C0FFF4"/>
</linearGradient>
<linearGradient id="paint24_linear_9_2" x1="2360.38" y1="933.774" x2="-2515.68" y2="941.767" gradientUnits="userSpaceOnUse">
<stop stop-color="#C64545"/>
<stop offset="1" stop-color="#B95656"/>
</linearGradient>
<linearGradient id="paint25_linear_9_2" x1="2614.92" y1="651" x2="2614.92" y2="4514.36" gradientUnits="userSpaceOnUse">
<stop stop-color="#FFB1B1"/>
<stop offset="0.175" stop-color="#FFE3AB"/>
<stop offset="0.34" stop-color="#BAFEEA"/>
<stop offset="0.505" stop-color="#FDFEBA"/>
<stop offset="0.62" stop-color="#CDFFC0"/>
<stop offset="0.72" stop-color="#FFCBC0"/>
<stop offset="0.86" stop-color="#EBFFC0"/>
<stop offset="0.98" stop-color="#C0FFF4"/>
</linearGradient>
<linearGradient id="paint26_linear_9_2" x1="2633.38" y1="579.774" x2="-2242.68" y2="587.767" gradientUnits="userSpaceOnUse">
<stop stop-color="#C64545"/>
<stop offset="1" stop-color="#B95656"/>
</linearGradient>
<linearGradient id="paint27_linear_9_2" x1="2887.92" y1="297" x2="2887.92" y2="4160.36" gradientUnits="userSpaceOnUse">
<stop stop-color="#FFB1B1"/>
<stop offset="0.175" stop-color="#FFE3AB"/>
<stop offset="0.34" stop-color="#BAFEEA"/>
<stop offset="0.505" stop-color="#FDFEBA"/>
<stop offset="0.62" stop-color="#CDFFC0"/>
<stop offset="0.72" stop-color="#FFCBC0"/>
<stop offset="0.86" stop-color="#EBFFC0"/>
<stop offset="0.98" stop-color="#C0FFF4"/>
</linearGradient>
<clipPath id="clip0_9_2">
<rect width="1728" height="1117" fill="white"/>
</clipPath>
</defs>
</svg>
